<svg width="35" height="26" viewBox="0 0 35 26" fill="none" xmlns="http://www.w3.org/2000/svg">
<g clip-path="url(#clip0_419_4)">
<path d="M33 0.5H2C1.17157 0.5 0.5 1.17157 0.5 2V24C0.5 24.8284 1.17157 25.5 2 25.5H33C33.8284 25.5 34.5 24.8284 34.5 24V2C34.5 1.17157 33.8284 0.5 33 0.5Z" stroke="black" stroke-opacity="0.26"/>
<path d="M2 11C2 9.89543 2.89543 9 4 9H31C32.1046 9 33 9.89543 33 11V15C33 16.1046 32.1046 17 31 17H4C2.89543 17 2 16.1046 2 15V11Z" fill="#021752"/>
<path d="M9.3995 15V11.3636H10.7312C10.9892 11.3636 11.2029 11.4062 11.3722 11.4915C11.5414 11.5755 11.6681 11.6897 11.7521 11.8342C11.8362 11.9774 11.8782 12.139 11.8782 12.3189C11.8782 12.4704 11.8504 12.5982 11.7947 12.7024C11.7391 12.8054 11.6645 12.8883 11.571 12.951C11.4787 13.0125 11.3769 13.0575 11.2656 13.0859V13.1214C11.3864 13.1274 11.5041 13.1664 11.619 13.2386C11.735 13.3097 11.8308 13.4109 11.9066 13.5423C11.9824 13.6737 12.0202 13.8335 12.0202 14.0217C12.0202 14.2075 11.9764 14.3744 11.8888 14.5224C11.8024 14.6692 11.6687 14.7857 11.4876 14.8722C11.3065 14.9574 11.075 15 10.7933 15H9.3995ZM9.94815 14.5295H10.7401C11.0028 14.5295 11.1911 14.4786 11.3047 14.3768C11.4183 14.275 11.4751 14.1477 11.4751 13.995C11.4751 13.8802 11.4461 13.7749 11.3881 13.679C11.3301 13.5831 11.2473 13.5067 11.1396 13.4499C11.033 13.3931 10.9064 13.3647 10.7596 13.3647H9.94815V14.5295ZM9.94815 12.9368H10.6832C10.8063 12.9368 10.917 12.9131 11.0153 12.8658C11.1147 12.8184 11.1934 12.7521 11.2514 12.6669C11.3106 12.5805 11.3402 12.4787 11.3402 12.3615C11.3402 12.2112 11.2875 12.0851 11.1822 11.9833C11.0768 11.8815 10.9152 11.8306 10.6974 11.8306H9.94815V12.9368ZM13.4221 15.0604C13.2492 15.0604 13.093 15.0284 12.9533 14.9645C12.8136 14.8994 12.7029 14.8053 12.6213 14.6822C12.5408 14.5591 12.5005 14.4081 12.5005 14.2294C12.5005 14.0755 12.5301 13.9489 12.5893 13.8494C12.6485 13.75 12.7284 13.6713 12.829 13.6133C12.9296 13.5553 13.0421 13.5115 13.1664 13.4819C13.2907 13.4523 13.4173 13.4298 13.5463 13.4144C13.7097 13.3955 13.8423 13.3801 13.9441 13.3683C14.0459 13.3552 14.1199 13.3345 14.166 13.3061C14.2122 13.2777 14.2353 13.2315 14.2353 13.1676V13.1552C14.2353 13.0001 14.1915 12.88 14.1039 12.7947C14.0175 12.7095 13.8884 12.6669 13.7168 12.6669C13.5381 12.6669 13.3972 12.7066 13.2942 12.7859C13.1924 12.864 13.122 12.951 13.0829 13.0469L12.584 12.9332C12.6432 12.7675 12.7296 12.6338 12.8432 12.532C12.958 12.429 13.09 12.3544 13.2392 12.3082C13.3883 12.2609 13.5452 12.2372 13.7097 12.2372C13.8186 12.2372 13.934 12.2502 14.0559 12.2763C14.179 12.3011 14.2939 12.3473 14.4004 12.4148C14.5081 12.4822 14.5963 12.5787 14.665 12.7042C14.7336 12.8285 14.7679 12.9901 14.7679 13.1889V15H14.2495V14.6271H14.2282C14.1938 14.6958 14.1423 14.7633 14.0737 14.8295C14.005 14.8958 13.9168 14.9509 13.8091 14.9947C13.7014 15.0385 13.5724 15.0604 13.4221 15.0604ZM13.5375 14.6342C13.6842 14.6342 13.8097 14.6052 13.9139 14.5472C14.0192 14.4892 14.0991 14.4135 14.1536 14.32C14.2092 14.2253 14.237 14.1241 14.237 14.0163V13.6648C14.2181 13.6837 14.1814 13.7015 14.127 13.718C14.0737 13.7334 14.0127 13.747 13.9441 13.7589C13.8754 13.7695 13.8085 13.7796 13.7434 13.7891C13.6783 13.7973 13.6239 13.8045 13.5801 13.8104C13.4771 13.8234 13.383 13.8453 13.2978 13.8761C13.2137 13.9068 13.1462 13.9512 13.0953 14.0092C13.0456 14.0661 13.0208 14.1418 13.0208 14.2365C13.0208 14.3679 13.0693 14.4673 13.1664 14.5348C13.2634 14.6011 13.3871 14.6342 13.5375 14.6342ZM16.0059 13.3807V15H15.4751V12.2727H15.9846V12.7166H16.0184C16.0811 12.5722 16.1794 12.4562 16.3131 12.3686C16.4481 12.281 16.6179 12.2372 16.8227 12.2372C17.0086 12.2372 17.1713 12.2763 17.311 12.3544C17.4507 12.4313 17.559 12.5462 17.6359 12.6989C17.7129 12.8516 17.7513 13.0404 17.7513 13.2653V15H17.2204V13.3292C17.2204 13.1315 17.1689 12.977 17.066 12.8658C16.963 12.7533 16.8215 12.6971 16.6416 12.6971C16.5185 12.6971 16.409 12.7237 16.3131 12.777C16.2184 12.8303 16.1433 12.9084 16.0876 13.0114C16.0332 13.1132 16.0059 13.2363 16.0059 13.3807ZM18.9942 13.3807V15H18.4633V12.2727H18.9729V12.7166H19.0067C19.0694 12.5722 19.1676 12.4562 19.3014 12.3686C19.4363 12.281 19.6062 12.2372 19.811 12.2372C19.9968 12.2372 20.1596 12.2763 20.2993 12.3544C20.439 12.4313 20.5473 12.5462 20.6242 12.6989C20.7011 12.8516 20.7396 13.0404 20.7396 13.2653V15H20.2087V13.3292C20.2087 13.1315 20.1572 12.977 20.0542 12.8658C19.9513 12.7533 19.8098 12.6971 19.6299 12.6971C19.5068 12.6971 19.3973 12.7237 19.3014 12.777C19.2067 12.8303 19.1315 12.9084 19.0759 13.0114C19.0215 13.1132 18.9942 13.2363 18.9942 13.3807ZM22.627 15.055C22.3583 15.055 22.1269 14.9976 21.9328 14.8828C21.7398 14.7668 21.5907 14.604 21.4854 14.3945C21.3812 14.1838 21.3291 13.937 21.3291 13.6541C21.3291 13.3748 21.3812 13.1286 21.4854 12.9155C21.5907 12.7024 21.7375 12.5361 21.9257 12.4165C22.1151 12.297 22.3364 12.2372 22.5898 12.2372C22.7436 12.2372 22.8928 12.2627 23.0372 12.3136C23.1816 12.3645 23.3112 12.4444 23.426 12.5533C23.5409 12.6622 23.6314 12.8036 23.6977 12.9776C23.764 13.1504 23.7971 13.3606 23.7971 13.608V13.7962H21.6292V13.3984H23.2769C23.2769 13.2588 23.2485 13.1351 23.1917 13.0273C23.1349 12.9184 23.055 12.8326 22.952 12.7699C22.8502 12.7071 22.7306 12.6758 22.5933 12.6758C22.4442 12.6758 22.314 12.7125 22.2027 12.7859C22.0926 12.8581 22.0074 12.9528 21.947 13.07C21.8878 13.186 21.8582 13.312 21.8582 13.4482V13.7589C21.8582 13.9412 21.8902 14.0962 21.9541 14.2241C22.0192 14.3519 22.1098 14.4496 22.2258 14.517C22.3418 14.5833 22.4773 14.6165 22.6324 14.6165C22.733 14.6165 22.8247 14.6023 22.9076 14.5739C22.9904 14.5443 23.0621 14.5005 23.1224 14.4425C23.1828 14.3845 23.229 14.3129 23.2609 14.2276L23.7634 14.3182C23.7232 14.4661 23.651 14.5958 23.5468 14.707C23.4438 14.8171 23.3142 14.9029 23.1579 14.9645C23.0029 15.0249 22.8259 15.055 22.627 15.055ZM24.3862 15V12.2727H24.8993V12.706H24.9277C24.9775 12.5592 25.065 12.4438 25.1905 12.3597C25.3172 12.2745 25.4604 12.2319 25.6202 12.2319C25.6533 12.2319 25.6924 12.2331 25.7374 12.2354C25.7836 12.2378 25.8197 12.2408 25.8457 12.2443V12.7521C25.8244 12.7462 25.7865 12.7397 25.7321 12.7326C25.6776 12.7243 25.6232 12.7202 25.5687 12.7202C25.4432 12.7202 25.3314 12.7468 25.2331 12.8001C25.1361 12.8522 25.0591 12.925 25.0023 13.0185C24.9455 13.1108 24.9171 13.2161 24.9171 13.3345V15H24.3862Z" fill="white"/>
</g>
<defs>
<clipPath id="clip0_419_4">
<rect width="35" height="26" fill="white"/>
</clipPath>
</defs>
</svg>
